<?xml version="1.0" standalone="no"?><!DOCTYPE svg PUBLIC "-//W3C//DTD SVG 1.1//EN" "http://www.w3.org/Graphics/SVG/1.1/DTD/svg11.dtd"><svg t="1574782652112" class="icon" viewBox="0 0 1024 1024" version="1.1" xmlns="http://www.w3.org/2000/svg" p-id="946" width="128" height="128" xmlns:xlink="http://www.w3.org/1999/xlink"><defs><style type="text/css"></style></defs><path d="M530.432 870.4c0 38.912 6.144 69.632 20.48 94.208 14.336 22.528 36.864 34.816 69.632 34.816V1024c-40.96 0-71.68-12.288-92.16-38.912-18.432-24.576-28.672-71.68-28.672-137.216v-194.56c0-36.864-4.096-65.536-14.336-88.064-10.24-22.528-32.768-34.816-67.584-38.912v-26.624c32.768-4.096 53.248-16.384 65.536-34.816 12.288-18.432 16.384-49.152 16.384-90.112V178.176c0-67.584 10.24-112.64 28.672-139.264C548.864 12.288 579.584 0 620.544 0v26.624c-32.768 0-55.296 10.24-69.632 32.768-14.336 20.48-20.48 53.248-20.48 96.256v225.28c0 49.152-8.192 81.92-26.624 100.352-18.432 18.432-36.864 26.624-57.344 26.624v8.192c22.528 0 40.96 10.24 57.344 32.768 16.384 20.48 24.576 53.248 24.576 96.256v225.28z" fill="#8a8a8a" p-id="947"></path></svg>